<svg xmlns="http://www.w3.org/2000/svg" width="512" height="512" viewBox="0 0 512 512">
<g>
<path d="M 397.04 340.25 L 395.84 344.00 L 203.11 344.00 L 226.62 296.25 C239.55,269.99 258.99,230.39 269.81,208.25 L 289.50 168.01 L 395.84 168.00 L 397.06 171.75 C399.20,178.35 405.73,190.33 410.36,196.13 C417.71,205.36 431.97,214.96 444.25,218.94 L 448.00 220.16 L 448.00 291.86 L 442.25 294.00 C421.44,301.74 403.49,320.10 397.04,340.25 ZM 473.50 393.04 L 467.50 395.38 L 323.32 395.53 L 179.15 395.67 L 193.01 368.00 L 327.04 368.00 C445.39,368.00 461.49,367.82 464.75,366.46 C469.70,364.39 471.93,362.26 474.12,357.50 C475.86,353.71 475.96,348.47 475.98,256.07 C476.00,158.80 476.00,158.62 473.88,154.25 C472.60,151.61 470.14,148.80 467.70,147.18 L 463.65 144.50 L 382.82 144.23 C338.37,144.09 302.00,143.78 302.00,143.55 C302.00,143.32 305.00,137.03 308.67,129.57 L 315.33 116.00 L 388.92 116.01 C469.06,116.03 469.87,116.08 480.24,121.72 C486.78,125.29 494.88,133.32 498.22,139.57 C499.02,141.07 499.71,142.30 500.30,143.58 C504.00,151.54 504.00,161.22 504.00,247.16 C504.00,250.02 504.00,252.97 504.00,256.00 C504.00,342.77 503.80,356.35 502.45,361.54 C498.78,375.64 487.96,387.41 473.50,393.04 ZM 246.70 180.04 C243.61,181.93 241.10,181.99 171.00,181.99 C100.85,181.99 98.40,181.93 95.30,180.04 C86.37,174.59 87.33,161.62 97.02,156.75 C100.24,155.14 105.90,155.00 171.50,155.00 C237.12,155.00 242.76,155.14 245.93,156.75 C250.95,159.31 253.17,162.87 253.17,168.40 C253.17,173.83 251.26,177.26 246.70,180.04 ZM 318.00 304.35 L 318.00 318.00 L 336.00 318.00 L 336.00 310.50 C336.00,303.26 336.08,303.00 338.39,303.00 C341.97,303.00 350.07,296.99 353.68,291.67 C361.99,279.41 359.42,262.56 348.04,254.65 C345.54,252.92 338.10,248.79 331.50,245.48 C317.82,238.61 315.75,236.32 318.47,231.06 C319.32,229.41 320.89,227.60 321.94,227.03 C325.08,225.35 335.06,225.90 341.00,228.08 C341.63,228.31 342.22,228.53 342.77,228.73 C347.31,230.40 349.01,231.03 349.65,230.46 C350.03,230.12 350.02,229.34 350.01,228.10 C350.00,227.85 350.00,227.58 350.00,227.29 C350.00,225.13 350.73,221.21 351.62,218.59 C353.86,212.01 352.68,209.77 345.53,207.10 C342.45,205.94 338.82,205.00 337.46,205.00 C335.08,205.00 335.00,204.77 335.00,198.00 L 335.00 191.00 L 318.00 191.00 L 318.00 205.88 L 312.00 209.08 C304.09,213.30 298.55,219.39 296.57,226.09 C294.61,232.68 294.61,234.32 296.60,241.07 C299.27,250.16 306.39,255.82 324.89,263.59 C331.75,266.47 335.00,270.29 335.00,275.50 C335.00,279.01 334.49,280.26 332.36,281.93 C326.03,286.91 316.37,286.75 306.02,281.51 C303.22,280.09 300.56,279.15 300.12,279.42 C298.70,280.30 295.76,292.90 296.39,295.40 C297.15,298.43 303.57,301.67 311.90,303.22 ZM 157.74 267.73 C154.74,269.37 149.52,269.51 87.50,269.68 C50.65,269.78 19.21,269.46 17.64,268.99 C6.56,265.61 4.77,250.78 14.66,244.30 C17.25,242.61 21.60,242.50 86.63,242.50 C155.07,242.50 155.89,242.52 158.68,244.57 C167.09,250.74 166.60,262.89 157.74,267.73 ZM 158.34 355.70 C155.80,357.36 152.01,357.51 108.05,357.68 C80.87,357.78 59.14,357.46 57.33,356.92 C51.22,355.12 46.81,346.89 48.45,340.35 C49.57,335.89 55.03,331.27 60.06,330.53 C62.50,330.17 85.06,330.02 110.18,330.19 C154.55,330.49 155.94,330.56 158.68,332.57 C162.15,335.12 165.00,340.50 164.99,344.50 C164.99,348.23 161.97,353.32 158.34,355.70 Z" fill="rgb(52,62,68)"/>
<path d="M 0.00 256.00 L 0.00 0.00 L 256.00 0.00 L 512.00 0.00 L 512.00 256.00 L 512.00 512.00 L 256.00 512.00 L 0.00 512.00 L 0.00 256.00 ZM 473.50 393.04 C487.96,387.41 498.78,375.64 502.45,361.54 C503.80,356.35 504.00,342.77 504.00,256.00 C504.00,147.27 504.17,150.70 498.22,139.57 C494.88,133.32 486.78,125.29 480.24,121.72 C469.87,116.08 469.06,116.03 388.92,116.01 L 315.33 116.00 L 308.67 129.57 C305.00,137.03 302.00,143.32 302.00,143.55 C302.00,143.78 338.37,144.09 382.82,144.23 L 463.65 144.50 L 467.70 147.18 C470.14,148.80 472.60,151.61 473.88,154.25 C476.00,158.62 476.00,158.80 475.98,256.07 C475.96,348.47 475.86,353.71 474.12,357.50 C471.93,362.26 469.70,364.39 464.75,366.46 C461.49,367.82 445.39,368.00 327.04,368.00 L 193.01 368.00 L 186.08 381.84 L 179.15 395.67 L 323.32 395.53 L 467.50 395.38 L 473.50 393.04 ZM 158.34 355.70 C161.97,353.32 164.99,348.23 164.99,344.50 C165.00,340.50 162.15,335.12 158.68,332.57 C155.94,330.56 154.55,330.49 110.18,330.19 C85.06,330.02 62.50,330.17 60.06,330.53 C55.03,331.27 49.57,335.89 48.45,340.35 C46.81,346.89 51.22,355.12 57.33,356.92 C59.14,357.46 80.87,357.78 108.05,357.68 C152.01,357.51 155.80,357.36 158.34,355.70 ZM 397.04 340.25 C403.49,320.10 421.44,301.74 442.25,294.00 L 448.00 291.86 L 448.00 256.01 L 448.00 220.16 L 444.25 218.94 C431.97,214.96 417.71,205.36 410.36,196.13 C405.73,190.33 399.20,178.35 397.06,171.75 L 395.84 168.00 L 342.67 168.00 L 289.50 168.01 L 269.81 208.25 C258.99,230.39 239.55,269.99 226.62,296.25 L 203.11 344.00 L 299.48 344.00 L 395.84 344.00 L 397.04 340.25 ZM 157.74 267.73 C166.60,262.89 167.09,250.74 158.68,244.57 C155.89,242.52 155.07,242.50 86.63,242.50 C21.60,242.50 17.25,242.61 14.66,244.30 C4.77,250.78 6.56,265.61 17.64,268.99 C19.21,269.46 50.65,269.78 87.50,269.68 C149.52,269.51 154.74,269.37 157.74,267.73 ZM 246.70 180.04 C251.26,177.26 253.17,173.83 253.17,168.40 C253.17,162.87 250.95,159.31 245.93,156.75 C242.76,155.14 237.12,155.00 171.50,155.00 C105.90,155.00 100.24,155.14 97.02,156.75 C87.33,161.62 86.37,174.59 95.30,180.04 C98.40,181.93 100.85,181.99 171.00,181.99 C241.10,181.99 243.61,181.93 246.70,180.04 ZM 318.00 311.18 L 318.00 304.35 L 311.90 303.22 C303.57,301.67 297.15,298.43 296.39,295.40 C295.76,292.90 298.70,280.30 300.12,279.42 C300.56,279.15 303.22,280.09 306.02,281.51 C316.37,286.75 326.03,286.91 332.36,281.93 C334.49,280.26 335.00,279.01 335.00,275.50 C335.00,270.29 331.75,266.47 324.89,263.59 C306.39,255.82 299.27,250.16 296.60,241.07 C294.61,234.32 294.61,232.68 296.57,226.09 C298.55,219.39 304.09,213.30 312.00,209.08 L 318.00 205.88 L 318.00 198.44 L 318.00 191.00 L 326.50 191.00 L 335.00 191.00 L 335.00 198.00 C335.00,204.77 335.08,205.00 337.46,205.00 C338.82,205.00 342.45,205.94 345.53,207.10 C352.68,209.77 353.86,212.01 351.62,218.59 C350.73,221.21 350.00,225.13 350.00,227.29 C350.00,231.68 350.67,231.62 341.00,228.08 C335.06,225.90 325.08,225.35 321.94,227.03 C320.89,227.60 319.32,229.41 318.47,231.06 C315.75,236.32 317.82,238.61 331.50,245.48 C338.10,248.79 345.54,252.92 348.04,254.65 C359.42,262.56 361.99,279.41 353.68,291.67 C350.07,296.99 341.97,303.00 338.39,303.00 C336.08,303.00 336.00,303.26 336.00,310.50 L 336.00 318.00 L 327.00 318.00 L 318.00 318.00 L 318.00 311.18 Z" fill="rgb(254,254,254)"/>
</g>
</svg>