<?xml version="1.0" encoding="UTF-8"?>
<svg version="1.1" xmlns="http://www.w3.org/2000/svg" width="512" height="512">
<path d="M0 0 C8.04374077 5.47915927 14.83612534 13.7095846 21.6875 20.58984375 C22.99864101 21.90285306 24.31000537 23.21563937 25.62158203 24.5282135 C29.04977237 27.96019656 32.47494722 31.39517349 35.8994751 34.83081055 C39.40380204 38.34542187 42.91101083 41.85715489 46.41796875 45.36914062 C53.28144934 52.24330121 60.1414741 59.12089598 67 66 C67.33 60.72 67.66 55.44 68 50 C89.12 50 110.24 50 132 50 C131.45730469 55.30449219 130.91460937 60.60898438 130.35546875 66.07421875 C129.80786824 73.27412779 129.44475198 80.47162481 129.1875 87.6875 C129.15415558 88.61636017 129.12081116 89.54522034 129.0864563 90.50222778 C128.33090907 115.49768331 130.77933002 134.31271441 148.34721375 152.97795105 C159.22339283 164.10176806 171.36094898 174.08060617 183.87438965 183.29919434 C186 185 186 185 187 187 C187.34708476 192.29304255 187.51351894 195.73358414 184 200 C173.250323 205.3748385 160.01850425 202 148 202 C148 260.08 148 318.16 148 378 C47.68 378 -52.64 378 -156 378 C-156 319.92 -156 261.84 -156 202 C-167.55 202 -179.1 202 -191 202 C-196.87205375 197.302357 -196.87205375 197.302357 -198 194 C-198.37983567 190.0753434 -197.90694964 186.45773989 -195.80605018 183.0809648 C-194.14565395 181.1362283 -192.39582518 179.36255457 -190.5556488 177.58688354 C-189.87440211 176.89809589 -189.19315541 176.20930823 -188.49126488 175.49964821 C-186.20994042 173.20283941 -183.9012493 170.93572898 -181.59155273 168.66748047 C-179.94752231 167.02406978 -178.30524612 165.37890259 -176.66459656 163.7321167 C-172.20690125 159.26785391 -167.72487306 154.82876939 -163.23797107 150.393888 C-159.01921259 146.21676508 -154.8186568 142.02148026 -150.61780668 137.82635953 C-142.28987132 129.51104736 -133.94388233 121.21410169 -125.58666992 112.92822266 C-117.48915744 104.89976178 -109.40141815 96.86164884 -101.32592773 88.81103516 C-100.82889843 88.31554223 -100.33186912 87.82004931 -99.81977832 87.30954145 C-97.82156083 85.31743607 -95.82339295 83.32528095 -93.82529536 81.33305531 C-78.48685898 66.04019908 -63.13990218 50.75573686 -47.76201057 35.50255585 C-46.15362438 33.90663843 -44.54601496 32.30993772 -42.93925476 30.71238327 C-40.73951556 28.52567286 -38.53679124 26.34201391 -36.33323669 24.15914917 C-35.70354223 23.53199882 -35.07384777 22.90484848 -34.42507166 22.25869358 C-30.66259952 18.53960662 -26.78582397 15.00301338 -22.77180821 11.55650818 C-19.38325502 8.57971264 -16.32507776 5.28760044 -13.19921875 2.0390625 C-9.21629048 -1.65381238 -4.99530672 -1.56356322 0 0 Z " fill="#D9DCE1" transform="translate(260,62)"/>
<path d="M0 0 C31.68 0 63.36 0 96 0 C96 44.88 96 89.76 96 136 C64.32 136 32.64 136 0 136 C0 91.12 0 46.24 0 0 Z " fill="#FFFFFF" transform="translate(208,304)"/>
</svg>
