<?xml version="1.0" encoding="UTF-8"?>
<svg version="1.1" xmlns="http://www.w3.org/2000/svg" width="512" height="512">
<path d="M0 0 C1.72005187 -0.00573832 1.72005187 -0.00573832 3.47485226 -0.01159257 C7.3022263 -0.02187899 11.12944909 -0.01793864 14.95683289 -0.01396179 C17.70713227 -0.0172186 20.45742335 -0.02343031 23.2077179 -0.02944946 C29.89414939 -0.04217283 36.58054068 -0.04399308 43.26698224 -0.0416492 C48.70478904 -0.0398631 54.14258367 -0.04162194 59.58038902 -0.04587364 C60.35558145 -0.04646883 61.13077387 -0.04706402 61.92945698 -0.04767724 C63.5044914 -0.04888905 65.07952581 -0.05010319 66.65456023 -0.05131962 C81.41242481 -0.06218623 96.17026652 -0.06003694 110.92813238 -0.05393478 C124.41188973 -0.04876739 137.8955748 -0.0600179 151.37931786 -0.07903299 C165.24265969 -0.09843268 179.10596737 -0.1066636 192.96932286 -0.10290974 C200.74520095 -0.1010008 208.52101755 -0.10345517 216.29688454 -0.11762428 C222.91726425 -0.12956631 229.53754461 -0.13091153 236.15792576 -0.11883412 C239.53164992 -0.11296484 242.90504456 -0.1134337 246.27877998 -0.12383652 C249.94611107 -0.13432663 253.61295935 -0.12618444 257.28027344 -0.11352539 C258.33253673 -0.12089968 259.38480003 -0.12827396 260.46895009 -0.13587171 C274.2469427 -0.03629886 287.34449507 3.9834807 297.64311218 13.44038391 C309.36435912 26.08413639 313.69656271 38.90850242 313.52592468 55.85835266 C313.52167984 57.47066017 313.52167984 57.47066017 313.51734924 59.11553955 C313.50623492 62.51820943 313.48114666 65.9206073 313.45561218 69.32319641 C313.44557108 71.64285404 313.43644721 73.96251584 313.42826843 76.28218079 C313.40632431 81.94177738 313.37293483 87.60121746 313.33061218 93.26069641 C312.36976212 93.26656265 311.40891205 93.27242889 310.41894531 93.2784729 C301.31354252 93.33596815 292.20837243 93.4088668 283.10320759 93.49641132 C278.42341179 93.54092344 273.74369922 93.58022044 269.06376648 93.60713196 C264.53780062 93.63335778 260.01215841 93.67389256 255.48639488 93.72388268 C253.76949818 93.7404222 252.05254566 93.75201612 250.33558083 93.75831032 C230.93434397 93.83655089 213.87935665 97.02643793 199.43608093 111.09272766 C198.74127625 111.80815735 198.04647156 112.52358704 197.33061218 113.26069641 C196.76987 113.8008136 196.20912781 114.34093079 195.63139343 114.89741516 C185.29505015 125.66783061 180.79882125 141.54746881 180.90849304 156.1164093 C181.33187789 167.77545642 184.98621434 178.49063097 191.33061218 188.26069641 C191.8320575 189.03929016 192.33350281 189.81788391 192.85014343 190.62007141 C201.83750189 203.30296169 215.63955131 210.32487921 230.48475647 213.63414001 C237.91152444 214.84408894 245.37328297 214.74489129 252.88139343 214.77241516 C254.63402533 214.78929894 256.3866454 214.80745402 258.13925171 214.82681274 C262.70768024 214.87391785 267.27606078 214.90398083 271.84465027 214.93025208 C276.52431209 214.96025907 281.20380908 215.00671912 285.88334656 215.05171204 C295.03234816 215.13729466 304.18138412 215.20483798 313.33061218 215.26069641 C313.33061218 218.89069641 313.33061218 222.52069641 313.33061218 226.26069641 C311.71154968 226.35866516 310.09248718 226.45663391 308.42436218 226.55757141 C283.55918498 228.20069541 262.8245778 233.1664784 243.33061218 249.26069641 C242.74151062 249.69897766 242.15240906 250.13725891 241.54545593 250.58882141 C225.82892619 262.49147327 218.08630007 282.68830551 213.241745 301.04243469 C213.05737885 301.7375264 212.8730127 302.4326181 212.68305969 303.14877319 C212.2313065 304.85249933 211.78083073 306.55656409 211.33061218 308.26069641 C182.34919094 308.35423156 153.3677924 308.42472068 124.3862505 308.4679451 C121.70469971 308.47202433 119.02314906 308.47618962 116.34159851 308.48042297 C115.67511084 308.48147222 115.00862316 308.48252146 114.32193889 308.48360249 C103.55097601 308.50097551 92.78009912 308.53249593 82.00918714 308.5693076 C70.94517728 308.60680369 59.88121469 308.6286514 48.81714457 308.63705039 C42.6076739 308.64225469 36.39839781 308.65444465 30.18898964 308.68361664 C24.33756615 308.71088259 18.48641637 308.71911878 12.63493538 308.71312714 C10.49406697 308.71422238 8.35318887 308.72210916 6.21237564 308.73751831 C-12.80827788 308.86764338 -27.95000771 306.26279263 -42.31001282 292.77241516 C-57.14675297 276.97767357 -56.82069355 257.71314877 -56.81465149 237.43745422 C-56.81764711 235.42916298 -56.82105057 233.42087232 -56.8248291 231.4125824 C-56.8336322 225.97852046 -56.83600566 220.5444743 -56.83664489 215.11040592 C-56.83735748 211.70945893 -56.83949576 208.30851589 -56.84214211 204.90756989 C-56.85138329 193.0259272 -56.85547853 181.1442957 -56.85469055 169.26264954 C-56.85409008 158.21437487 -56.86463911 147.16614908 -56.88043422 136.11788678 C-56.89354027 126.60926245 -56.89887316 117.10065404 -56.89823514 107.59202075 C-56.89798106 101.92320456 -56.9007826 96.25443183 -56.91141319 90.58562469 C-56.9211459 85.25037847 -56.9211381 79.91521683 -56.91389656 74.5799675 C-56.91285713 72.63141887 -56.9151751 70.68286483 -56.92125702 68.73432541 C-56.98219089 47.84514201 -55.65323641 30.08467639 -40.67720032 14.13960266 C-29.26535314 3.0830694 -15.35128626 -0.05478746 0 0 Z " fill="#2B3244" transform="translate(96.66938781738281,60.73930358886719)"/>
<path d="M0 0 C13.6464538 11.16952897 22.14925974 28.85251436 24.40625 46.10546875 C26.39946422 66.15086174 21.57500811 85.02297327 9.25 101.125 C-3.18479133 115.98551767 -19.55498638 125.8984101 -39 128 C-58.02261262 129.33277957 -77.36437668 125.68604089 -92.4609375 113.28125 C-95.46051271 110.65973446 -98.24283882 107.87439481 -101 105 C-101.60199219 104.39414062 -102.20398438 103.78828125 -102.82421875 103.1640625 C-116.74343954 88.18537346 -120.67188112 67.98843473 -120.33984375 48.21875 C-119.56744686 30.70681397 -110.01572977 14.29116197 -98 2 C-69.563071 -23.32055322 -29.45749043 -22.86831494 0 0 Z M-56 30 C-57.50156874 33.00313748 -57.09281204 35.79067522 -57.0625 39.125 C-57.05347656 40.40632813 -57.04445313 41.68765625 -57.03515625 43.0078125 C-57.02355469 43.99523437 -57.01195312 44.98265625 -57 46 C-57.88042969 45.96519531 -58.76085937 45.93039062 -59.66796875 45.89453125 C-61.41013672 45.85392578 -61.41013672 45.85392578 -63.1875 45.8125 C-64.33605469 45.77769531 -65.48460937 45.74289062 -66.66796875 45.70703125 C-70.31991493 46.02812851 -72.08696127 46.82950056 -75 49 C-77.31141604 51.85074644 -78 53.3139451 -78 57 C-76.74804747 60.75585759 -75.01938264 62.4838478 -72 65 C-68.71480525 66.09506492 -66.26336585 66.09960608 -62.8125 66.0625 C-61.72582031 66.05347656 -60.63914062 66.04445313 -59.51953125 66.03515625 C-58.68808594 66.02355469 -57.85664063 66.01195312 -57 66 C-57.04640625 66.95261719 -57.0928125 67.90523437 -57.140625 68.88671875 C-57.17671875 70.14097656 -57.2128125 71.39523437 -57.25 72.6875 C-57.31960938 74.54955078 -57.31960938 74.54955078 -57.390625 76.44921875 C-56.93733018 80.5696687 -55.89748679 82.10787892 -53 85 C-50.17998673 86.41000664 -48.12992745 86.24548451 -45 86 C-42.2763931 84.76199686 -40.54332949 83.80937358 -38.8671875 81.3125 C-37.7035307 78.20941521 -37.80893262 75.55336879 -37.875 72.25 C-37.89304687 71.07953125 -37.91109375 69.9090625 -37.9296875 68.703125 C-37.95289063 67.81109375 -37.97609375 66.9190625 -38 66 C-37.20335937 66.03480469 -36.40671875 66.06960938 -35.5859375 66.10546875 C-27.27092466 66.50794379 -27.27092466 66.50794379 -20 63 C-17.74789804 59.82843335 -17.74789804 59.82843335 -17 56 C-18.04993383 52.06274813 -18.94381236 49.81230772 -22.19921875 47.30859375 C-25.61888927 45.71083974 -28.05627185 45.6986749 -31.8125 45.8125 C-32.97394531 45.83957031 -34.13539063 45.86664063 -35.33203125 45.89453125 C-36.21246094 45.92933594 -37.09289062 45.96414063 -38 46 C-37.95359375 45.04738281 -37.9071875 44.09476562 -37.859375 43.11328125 C-37.82328125 41.85902344 -37.7871875 40.60476563 -37.75 39.3125 C-37.70359375 38.07113281 -37.6571875 36.82976562 -37.609375 35.55078125 C-38.06266982 31.4303313 -39.10251321 29.89212108 -42 27 C-47.49042646 24.25478677 -51.90148521 25.90148521 -56 30 Z " fill="#2B3243" transform="translate(447,323)"/>
<path d="M0 0 C0.83022171 -0.00014603 1.66044342 -0.00029205 2.51582336 -0.0004425 C5.23193062 0.00024844 7.94796738 0.00800217 10.6640625 0.01586914 C12.55834923 0.01773623 14.45263644 0.01915876 16.34692383 0.02015686 C21.31167962 0.02395913 26.27640576 0.03376968 31.2411499 0.04486084 C37.20927823 0.05693167 43.17741652 0.06148811 49.14555359 0.06731415 C58.19341046 0.0769828 67.24120238 0.09615535 76.2890625 0.11352539 C76.2890625 27.50352539 76.2890625 54.89352539 76.2890625 83.11352539 C54.05986906 83.27396063 54.05986906 83.27396063 44.52734375 83.30883789 C38.0426715 83.33267688 31.55822686 83.36076791 25.07373047 83.4152832 C19.84117908 83.45899416 14.60887203 83.48271558 9.37615204 83.49303436 C7.387613 83.50038063 5.39908614 83.51472529 3.41065216 83.53644562 C-11.68437908 83.69465891 -24.17118728 82.98796198 -35.7109375 72.11352539 C-43.17028269 64.73761807 -47.85081643 55.41913852 -48.14282227 44.84594727 C-48.17481601 31.77024502 -45.50894672 21.87598174 -36.10546875 12.26977539 C-25.23577757 2.48173374 -14.30617847 -0.06714264 0 0 Z M-14.7109375 36.11352539 C-15.91194245 39.71654025 -16.06331888 41.31603069 -14.5234375 44.80102539 C-12.05794832 47.99629784 -12.05794832 47.99629784 -8.7109375 50.11352539 C-4.02194736 50.11352539 -1.82842426 50.03545197 1.7890625 47.05102539 C3.73277649 43.24458549 4.24297127 40.30059396 3.2890625 36.11352539 C1.29984364 33.12969709 -0.09596318 31.51075698 -3.6484375 30.63696289 C-8.94509707 30.25576391 -11.54836495 31.70509093 -14.7109375 36.11352539 Z " fill="#2B3243" transform="translate(343.7109375,173.886474609375)"/>
</svg>
